<svg width="100" height="18" viewBox="0 0 100 18" fill="none" xmlns="http://www.w3.org/2000/svg">
<path d="M96.0659 1.52588e-05L89.6823 11.4923L85.0288 3.1622V16.7554H83.5759V4.72177H82.6088V17.7497H85.9953V6.89557L89.6823 13.4964L96.6303 0.994201H98.5311V16.7554H97.0806V3.1622L91.2953 13.5072H92.4132L96.1117 6.89557V17.7497H99.5V1.52588e-05H96.0659Z" fill="black"/>
<path d="M27.1046 0.000112534V10.8655C27.1046 14.9418 25.0295 18 20.5473 18C20.3876 18 20.2256 18 20.0639 17.9872V15.6289C18.5429 15.535 16.3993 14.6217 16.3993 10.8655V0.994711H14.9488L12.9152 0.981878L11.6287 0.994711H9.83167L3.8866 8.12932V17.7503H0.5V0.000112534H3.8866V4.47767L2.91956 5.64089V0.994711H1.46704V16.7559H2.91956V7.76004L9.39385 0.000112534H17.3683V10.8655C17.3683 13.3774 18.3934 14.6579 20.5473 14.6579C20.7216 14.6579 20.871 14.6451 21.0307 14.6343V16.9927C25.4569 16.7323 26.1355 13.0337 26.1355 10.8655V0.994711H24.685V10.8655C24.685 13.5075 23.635 14.7284 22.4833 15.2619V14.1244C23.3133 13.5203 23.716 12.4427 23.716 10.8655V0.000112534H27.1046Z" fill="black"/>
<path d="M8.47293 4.77967L10.2756 2.76315L10.6762 2.28502L13.9798 2.29139L14.9488 2.28502V10.8655C14.9488 13.0103 15.5817 15.8317 18.6113 16.7559V17.7866C15.4675 16.9799 13.9798 14.3142 13.9798 10.8655V3.28599L11.1201 3.27962L9.28236 5.33007L8.47293 4.77967Z" fill="black"/>
<path d="M8.30813 6.54405L6.69567 8.53138L14.3491 17.7504H9.95819L5.33911 12.2057V10.6649L10.3959 16.7559H12.2407L5.41751 8.53138L7.52568 5.96279L8.30813 6.54405Z" fill="black"/>
<path d="M32.2575 1.14441e-05L32.1167 0.484273L32.1143 0.477651L32.243 1.14441e-05H32.2575Z" fill="black"/>
<path d="M44.2805 6.18282V12.2183L45.2496 13.7737V7.79618L44.2805 6.18282Z" fill="black"/>
<path d="M42.8238 16.7554H44.5027L44.4093 16.6934L35.4174 0.994183H33.0455L32.9256 1.45527L28.5206 16.7554H36.3953L35.0528 13.9848L36.0549 13.9509L37.9181 17.7496H27.1049L32.1167 0.484273L32.2575 1.14441e-05L35.9785 0L46.015 17.7496H42.27L34.6834 4.51977L33.0109 10.893L32.0121 10.9095L34.2842 2.08108L42.8238 16.7554Z" fill="black"/>
<path d="M58.8267 2.34517V3.33935H55.8302V17.7497H52.0845L43.0395 1.97845L42.8302 1.62581V9.40709L41.8611 7.63562V1.52588e-05H43.029L52.639 16.7554H54.8612V2.34517H58.8267Z" fill="black"/>
<path d="M77.7845 1.33514e-05L77.8382 0.0554758V1.33514e-05H77.7845Z" fill="black"/>
<path d="M83.5759 2.34516V3.33934H81.2253V10.8648C81.2253 14.9409 79.1518 17.9996 74.6697 17.9996C74.5079 17.9996 74.3462 17.9996 74.1844 17.9864V15.6289C72.6656 15.5345 70.5215 14.6214 70.5215 10.8648V3.33934H65.1159V2.34516H70.5215V0.994195H63.6653V17.7496H60.2771V0.994195H53.4108V15.2745L44.6645 1.14441e-05H45.7929L52.4418 11.6115V1.14441e-05H61.2459V16.7554H62.6964V1.14441e-05H71.4885V10.8648C71.4885 13.3772 72.5141 14.657 74.6697 14.657C74.8418 14.657 74.9915 14.6446 75.1532 14.6338V16.9922C79.5773 16.7323 80.2577 13.0337 80.2577 10.8648V2.34516H83.5759Z" fill="black"/>
<path d="M90.2582 7.59502L89.6932 8.59005L85.4774 0.994195H78.8059V10.8648C78.8059 13.5072 77.758 14.7282 76.6038 15.2613V14.1239C77.4332 13.5196 77.8382 12.4418 77.8382 10.8648L77.8382 1.33514e-05L86.0412 9.53674e-06L90.2582 7.59502Z" fill="black"/>
<path d="M72.7338 16.7553V17.7861C69.5882 16.9794 68.1027 14.3137 68.1027 10.8648V5.06738H69.0697V10.8648C69.0697 13.0097 69.7041 15.8311 72.7338 16.7553Z" fill="black"/>
</svg>
